<?xml version="1.0" encoding="utf-8"?>
<!-- Generator: Adobe Illustrator 15.0.0, SVG Export Plug-In . SVG Version: 6.00 Build 0)  -->
<!DOCTYPE svg PUBLIC "-//W3C//DTD SVG 1.1//EN" "http://www.w3.org/Graphics/SVG/1.1/DTD/svg11.dtd">
<svg version="1.1" id="Layer_1" xmlns="http://www.w3.org/2000/svg" xmlns:xlink="http://www.w3.org/1999/xlink" x="0px" y="0px"
	 width="2560px" height="1440px" viewBox="0 0 2560 1440" enable-background="new 0 0 2560 1440" xml:space="preserve">
<g>
	<g>
		<g>
			<path d="M2909.143,925.354c1.801-1.916,4.727-1.917,6.531-0.001c1.805,1.915,1.803,5.021,0,6.937
				c-1.801,1.916-4.722,1.918-6.525,0.001C2907.344,930.375,2907.337,927.269,2909.143,925.354z"/>
		</g>
		<g>
			<path d="M2397.203,853.111c2.454-2.654,6.658-2.655,9.388-0.001c2.728,2.654,2.944,6.957,0.49,9.612
				c-2.454,2.653-6.654,2.654-9.382,0.001C2394.97,860.069,2394.75,855.765,2397.203,853.111z"/>
		</g>
		<g>
			<path d="M1932.937,694.182c1.792-1.944,4.943-1.945,7.038-0.001c2.097,1.945,2.341,5.098,0.548,7.042
				c-1.791,1.944-4.944,1.945-7.039,0.001C1931.389,699.279,1931.145,696.125,1932.937,694.182z"/>
		</g>
		<g>
			<path d="M1132.481,154.906c1.925-2.067,5.134-2.068,7.171-0.001c2.037,2.067,2.129,5.418,0.203,7.484
				c-1.925,2.066-5.14,2.068-7.176,0.001C1130.643,160.324,1130.557,156.973,1132.481,154.906z"/>
		</g>
		<g>
			<path d="M1281.865,669.419c2.705-2.8,7.306-2.801,10.283-0.001c2.976,2.8,3.2,7.339,0.495,10.14
				c-2.705,2.799-7.317,2.801-10.294,0.001S1279.16,672.219,1281.865,669.419z"/>
		</g>
		<g>
			<path d="M2812.131,591.965c1.883-1.934,4.993-1.934,6.937,0c1.945,1.934,1.99,5.069,0.106,7.002
				c-1.883,1.933-4.988,1.934-6.931,0C2810.298,597.035,2810.245,593.898,2812.131,591.965z"/>
		</g>
		<g>
			
				<ellipse transform="matrix(-0.725 -0.6888 0.6888 -0.725 4003.6433 2626.116)" cx="2526.114" cy="513.748" rx="5.097" ry="4.846"/>
		</g>
		<g>
			<path d="M1658.469-133.802c1.925-1.992,5.103-1.992,7.097,0c1.993,1.992,2.047,5.221,0.124,7.213
				c-1.923,1.991-5.103,1.992-7.097,0C1656.6-128.58,1656.544-131.81,1658.469-133.802z"/>
		</g>
		<g>
			<path d="M899.333-255.944c1.933-2.102,5.067-2.102,7,0c1.933,2.101,1.932,5.508-0.001,7.609c-1.934,2.101-5.067,2.102-6.999,0
				C897.4-250.437,897.402-253.844,899.333-255.944z"/>
		</g>
		<g>
			<path d="M1534.436-760.561c2.749-2.408,6.654-2.409,8.72,0c2.063,2.408,1.512,6.314-1.23,8.722c-2.741,2.408-6.639,2.409-8.711,0
				C1531.141-754.247,1531.688-758.152,1534.436-760.561z"/>
		</g>
		<g>
			<path d="M1372.755-105.438c2.03-2.151,5.382-2.152,7.487,0c2.104,2.151,2.167,5.639,0.139,7.79c-2.029,2.15-5.383,2.152-7.489,0
				C1370.785-99.799,1370.726-103.287,1372.755-105.438z"/>
		</g>
		<g>
			<path d="M1488.461,343.36c1.592-1.723,4.353-1.723,6.166,0c1.814,1.722,1.996,4.516,0.406,6.239
				c-1.591,1.722-4.354,1.723-6.168,0C1487.05,347.876,1486.871,345.083,1488.461,343.36z"/>
		</g>
		<g>
			<path d="M2004.271-217.293c1.75-1.729,4.585-1.73,6.335,0c1.749,1.729,1.75,4.534,0.004,6.264c-1.746,1.729-4.582,1.73-6.335,0
				C2002.523-212.758,2002.522-215.563,2004.271-217.293z"/>
		</g>
		<g>
			<path d="M2126.999,80.601c1.931-1.997,5.22-1.998,7.348,0c2.126,1.997,2.286,5.234,0.357,7.231s-5.215,1.998-7.346,0
				C2125.23,85.835,2125.072,82.597,2126.999,80.601z"/>
		</g>
		<g>
			<path d="M2851.287,1238.422c1.834-1.986,4.813-1.986,6.649-0.001s1.838,5.205,0.005,7.19c-1.834,1.984-4.811,1.986-6.649,0.001
				C2849.454,1243.626,2849.451,1240.408,2851.287,1238.422z"/>
		</g>
		<g>
			<path d="M2269.854,1809.29c2.081-1.825,5.031-1.825,6.6,0c1.568,1.824,1.151,4.78-0.932,6.605c-2.083,1.824-5.044,1.824-6.604,0
				C2267.355,1814.072,2267.775,1811.113,2269.854,1809.29z"/>
		</g>
	</g>
	<g>
		<g>
			<path fill="#42B983" d="M2909.143,925.354c1.801-1.916,4.727-1.917,6.531-0.001c1.805,1.915,1.803,5.021,0,6.937
				c-1.801,1.916-4.722,1.918-6.525,0.001C2907.344,930.375,2907.337,927.269,2909.143,925.354z"/>
		</g>
		<g>
			<path fill="#42B983" d="M2397.203,853.111c2.454-2.654,6.658-2.655,9.388-0.001c2.728,2.654,2.944,6.957,0.49,9.612
				c-2.454,2.653-6.654,2.654-9.382,0.001C2394.97,860.069,2394.75,855.765,2397.203,853.111z"/>
		</g>
		<g>
			<path fill="#42B983" d="M1932.937,694.182c1.792-1.944,4.943-1.945,7.038-0.001c2.097,1.945,2.341,5.098,0.548,7.042
				c-1.791,1.944-4.944,1.945-7.039,0.001C1931.389,699.279,1931.145,696.125,1932.937,694.182z"/>
		</g>
		<g>
			<path fill="#42B983" d="M1132.481,154.906c1.925-2.067,5.134-2.068,7.171-0.001c2.037,2.067,2.129,5.418,0.203,7.484
				c-1.925,2.066-5.14,2.068-7.176,0.001C1130.643,160.324,1130.557,156.973,1132.481,154.906z"/>
		</g>
		<g>
			<path fill="#42B983" d="M1281.865,669.419c2.705-2.8,7.306-2.801,10.283-0.001c2.976,2.8,3.2,7.339,0.495,10.14
				c-2.705,2.799-7.317,2.801-10.294,0.001S1279.16,672.219,1281.865,669.419z"/>
		</g>
		<g>
			<path fill="#42B983" d="M2812.131,591.965c1.883-1.934,4.993-1.934,6.937,0c1.945,1.934,1.99,5.069,0.106,7.002
				c-1.883,1.933-4.988,1.934-6.931,0C2810.298,597.035,2810.245,593.898,2812.131,591.965z"/>
		</g>
		<g>
			
				<ellipse transform="matrix(-0.725 -0.6888 0.6888 -0.725 4003.6433 2626.116)" fill="#42B983" cx="2526.114" cy="513.748" rx="5.097" ry="4.846"/>
		</g>
		<g>
			<path fill="#42B983" d="M1658.469-133.802c1.925-1.992,5.103-1.992,7.097,0c1.993,1.992,2.047,5.221,0.124,7.213
				c-1.923,1.991-5.103,1.992-7.097,0C1656.6-128.58,1656.544-131.81,1658.469-133.802z"/>
		</g>
		<g>
			<path fill="#42B983" d="M899.333-255.944c1.933-2.102,5.067-2.102,7,0c1.933,2.101,1.932,5.508-0.001,7.609
				c-1.934,2.101-5.067,2.102-6.999,0C897.4-250.437,897.402-253.844,899.333-255.944z"/>
		</g>
		<g>
			<path fill="#42B983" d="M1534.436-760.561c2.749-2.408,6.654-2.409,8.72,0c2.063,2.408,1.512,6.314-1.23,8.722
				c-2.741,2.408-6.639,2.409-8.711,0C1531.141-754.247,1531.688-758.152,1534.436-760.561z"/>
		</g>
		<g>
			<path fill="#42B983" d="M1372.755-105.438c2.03-2.151,5.382-2.152,7.487,0c2.104,2.151,2.167,5.639,0.139,7.79
				c-2.029,2.15-5.383,2.152-7.489,0C1370.785-99.799,1370.726-103.287,1372.755-105.438z"/>
		</g>
		<g>
			<path fill="#42B983" d="M1488.461,343.36c1.592-1.723,4.353-1.723,6.166,0c1.814,1.722,1.996,4.516,0.406,6.239
				c-1.591,1.722-4.354,1.723-6.168,0C1487.05,347.876,1486.871,345.083,1488.461,343.36z"/>
		</g>
		<g>
			<path fill="#42B983" d="M2004.271-217.293c1.75-1.729,4.585-1.73,6.335,0c1.749,1.729,1.75,4.534,0.004,6.264
				c-1.746,1.729-4.582,1.73-6.335,0C2002.523-212.758,2002.522-215.563,2004.271-217.293z"/>
		</g>
		<g>
			<path fill="#42B983" d="M2126.999,80.601c1.931-1.997,5.22-1.998,7.348,0c2.126,1.997,2.286,5.234,0.357,7.231
				s-5.215,1.998-7.346,0C2125.23,85.835,2125.072,82.597,2126.999,80.601z"/>
		</g>
		<g>
			<path fill="#42B983" d="M2851.287,1238.422c1.834-1.986,4.813-1.986,6.649-0.001s1.838,5.205,0.005,7.19
				c-1.834,1.984-4.811,1.986-6.649,0.001C2849.454,1243.626,2849.451,1240.408,2851.287,1238.422z"/>
		</g>
		<g>
			<path fill="#42B983" d="M2269.854,1809.29c2.081-1.825,5.031-1.825,6.6,0c1.568,1.824,1.151,4.78-0.932,6.605
				c-2.083,1.824-5.044,1.824-6.604,0C2267.355,1814.072,2267.775,1811.113,2269.854,1809.29z"/>
		</g>
	</g>
</g>
<g>
	<g>
		<g>
			<path d="M-399.32,860.39c-1.802,1.916-4.729,1.916-6.532,0.001c-1.804-1.915-1.802-5.022-0.001-6.937
				c1.801-1.917,4.722-1.917,6.527-0.001C-397.522,855.368-397.518,858.475-399.32,860.39z"/>
		</g>
		<g>
			<path d="M112.617,932.632c-2.454,2.654-6.659,2.655-9.387,0.001c-2.729-2.654-2.946-6.958-0.49-9.612
				c2.455-2.653,6.654-2.655,9.381-0.001C114.849,925.674,115.072,929.978,112.617,932.632z"/>
		</g>
		<g>
			<path d="M576.885,1091.562c-1.792,1.944-4.944,1.944-7.039,0.001c-2.096-1.944-2.339-5.098-0.547-7.042
				c1.792-1.943,4.943-1.945,7.039-0.001C578.433,1086.464,578.677,1089.617,576.885,1091.562z"/>
		</g>
		<g>
			<path d="M1377.341,1630.837c-1.927,2.067-5.135,2.067-7.172,0c-2.036-2.066-2.129-5.417-0.204-7.484
				c1.924-2.066,5.141-2.067,7.177,0C1379.18,1625.419,1379.266,1628.771,1377.341,1630.837z"/>
		</g>
		<g>
			<path d="M1227.956,1116.324c-2.705,2.801-7.307,2.801-10.284,0.001c-2.976-2.8-3.201-7.341-0.496-10.14
				c2.704-2.799,7.316-2.801,10.294-0.001C1230.447,1108.984,1230.661,1113.524,1227.956,1116.324z"/>
		</g>
		<g>
			<path d="M-302.31,1193.777c-1.884,1.933-4.992,1.935-6.937,0.001s-1.99-5.071-0.106-7.003c1.884-1.934,4.984-1.935,6.929-0.001
				C-300.479,1188.709-300.426,1191.845-302.31,1193.777z"/>
		</g>
		<g>
			<ellipse transform="matrix(0.725 0.6888 -0.6888 0.725 871.6298 361.0459)" cx="-16.293" cy="1271.994" rx="5.097" ry="4.846"/>
		</g>
		<g>
			<path d="M851.353,1919.545c-1.925,1.99-5.104,1.992-7.096,0.001c-1.993-1.992-2.048-5.221-0.125-7.214
				c1.924-1.991,5.102-1.993,7.097-0.001C853.223,1914.322,853.278,1917.554,851.353,1919.545z"/>
		</g>
		<g>
			<path d="M1610.487,2041.687c-1.932,2.102-5.065,2.102-6.999,0.001c-1.934-2.102-1.933-5.508,0.002-7.608
				c1.932-2.101,5.068-2.102,6.998-0.001C1612.421,2036.18,1612.42,2039.588,1610.487,2041.687z"/>
		</g>
		<g>
			<path d="M975.386,2546.304c-2.75,2.413-6.656,2.409-8.72,0.001c-2.065-2.407-1.511-6.313,1.229-8.722
				c2.74-2.409,6.639-2.407,8.712-0.001C978.68,2539.99,978.134,2543.896,975.386,2546.304z"/>
		</g>
		<g>
			<path d="M1137.066,1891.182c-2.03,2.15-5.381,2.152-7.487,0.001c-2.105-2.151-2.167-5.64-0.139-7.79
				c2.028-2.151,5.383-2.151,7.489-0.001C1139.036,1885.545,1139.096,1889.031,1137.066,1891.182z"/>
		</g>
		<g>
			<path d="M1021.36,1442.383c-1.591,1.722-4.35,1.722-6.166,0c-1.815-1.723-1.997-4.516-0.406-6.238s4.353-1.723,6.168,0
				S1022.95,1440.66,1021.36,1442.383z"/>
		</g>
		<g>
			<path d="M505.55,2003.036c-1.749,1.73-4.585,1.73-6.334,0.001c-1.75-1.731-1.75-4.534-0.004-6.265
				c1.748-1.729,4.583-1.731,6.334-0.001C507.298,1998.502,507.299,2001.306,505.55,2003.036z"/>
		</g>
		<g>
			<path d="M382.821,1705.143c-1.93,1.997-5.22,1.999-7.347,0.001c-2.127-1.996-2.287-5.234-0.358-7.231
				c1.929-1.995,5.217-1.998,7.346-0.001C384.59,1699.907,384.751,1703.146,382.821,1705.143z"/>
		</g>
		<g>
			<path d="M-341.465,547.321c-1.835,1.985-4.813,1.986-6.65,0s-1.839-5.205-0.005-7.191c1.834-1.985,4.811-1.986,6.649,0
				C-339.633,542.116-339.63,545.336-341.465,547.321z"/>
		</g>
		<g>
			<path d="M239.965-23.547c-2.078,1.824-5.032,1.825-6.599,0.001c-1.567-1.824-1.151-4.782,0.932-6.605
				c2.083-1.824,5.042-1.825,6.604-0.001C242.465-28.329,242.043-25.371,239.965-23.547z"/>
		</g>
	</g>
	<g>
		<g>
			<path fill="#42B983" d="M-399.32,860.39c-1.802,1.916-4.729,1.916-6.532,0.001c-1.804-1.915-1.802-5.022-0.001-6.937
				c1.801-1.917,4.722-1.917,6.527-0.001C-397.522,855.368-397.518,858.475-399.32,860.39z"/>
		</g>
		<g>
			<path fill="#42B983" d="M112.617,932.632c-2.454,2.654-6.659,2.655-9.387,0.001c-2.729-2.654-2.946-6.958-0.49-9.612
				c2.455-2.653,6.654-2.655,9.381-0.001C114.849,925.674,115.072,929.978,112.617,932.632z"/>
		</g>
		<g>
			<path fill="#42B983" d="M576.885,1091.562c-1.792,1.944-4.944,1.944-7.039,0.001c-2.096-1.944-2.339-5.098-0.547-7.042
				c1.792-1.943,4.943-1.945,7.039-0.001C578.433,1086.464,578.677,1089.617,576.885,1091.562z"/>
		</g>
		<g>
			<path fill="#42B983" d="M1377.341,1630.837c-1.927,2.067-5.135,2.067-7.172,0c-2.036-2.066-2.129-5.417-0.204-7.484
				c1.924-2.066,5.141-2.067,7.177,0C1379.18,1625.419,1379.266,1628.771,1377.341,1630.837z"/>
		</g>
		<g>
			<path fill="#42B983" d="M1227.956,1116.324c-2.705,2.801-7.307,2.801-10.284,0.001c-2.976-2.8-3.201-7.341-0.496-10.14
				c2.704-2.799,7.316-2.801,10.294-0.001C1230.447,1108.984,1230.661,1113.524,1227.956,1116.324z"/>
		</g>
		<g>
			<path fill="#42B983" d="M-302.31,1193.777c-1.884,1.933-4.992,1.935-6.937,0.001s-1.99-5.071-0.106-7.003
				c1.884-1.934,4.984-1.935,6.929-0.001C-300.479,1188.709-300.426,1191.845-302.31,1193.777z"/>
		</g>
		<g>
			
				<ellipse transform="matrix(0.725 0.6888 -0.6888 0.725 871.6298 361.0459)" fill="#42B983" cx="-16.293" cy="1271.994" rx="5.097" ry="4.846"/>
		</g>
		<g>
			<path fill="#42B983" d="M851.353,1919.545c-1.925,1.99-5.104,1.992-7.096,0.001c-1.993-1.992-2.048-5.221-0.125-7.214
				c1.924-1.991,5.102-1.993,7.097-0.001C853.223,1914.322,853.278,1917.554,851.353,1919.545z"/>
		</g>
		<g>
			<path fill="#42B983" d="M1610.487,2041.687c-1.932,2.102-5.065,2.102-6.999,0.001c-1.934-2.102-1.933-5.508,0.002-7.608
				c1.932-2.101,5.068-2.102,6.998-0.001C1612.421,2036.18,1612.42,2039.588,1610.487,2041.687z"/>
		</g>
		<g>
			<path fill="#42B983" d="M975.386,2546.304c-2.75,2.413-6.656,2.409-8.72,0.001c-2.065-2.407-1.511-6.313,1.229-8.722
				c2.74-2.409,6.639-2.407,8.712-0.001C978.68,2539.99,978.134,2543.896,975.386,2546.304z"/>
		</g>
		<g>
			<path fill="#42B983" d="M1137.066,1891.182c-2.03,2.15-5.381,2.152-7.487,0.001c-2.105-2.151-2.167-5.64-0.139-7.79
				c2.028-2.151,5.383-2.151,7.489-0.001C1139.036,1885.545,1139.096,1889.031,1137.066,1891.182z"/>
		</g>
		<g>
			<path fill="#42B983" d="M1021.36,1442.383c-1.591,1.722-4.35,1.722-6.166,0c-1.815-1.723-1.997-4.516-0.406-6.238
				s4.353-1.723,6.168,0S1022.95,1440.66,1021.36,1442.383z"/>
		</g>
		<g>
			<path fill="#42B983" d="M505.55,2003.036c-1.749,1.73-4.585,1.73-6.334,0.001c-1.75-1.731-1.75-4.534-0.004-6.265
				c1.748-1.729,4.583-1.731,6.334-0.001C507.298,1998.502,507.299,2001.306,505.55,2003.036z"/>
		</g>
		<g>
			<path fill="#42B983" d="M382.821,1705.143c-1.93,1.997-5.22,1.999-7.347,0.001c-2.127-1.996-2.287-5.234-0.358-7.231
				c1.929-1.995,5.217-1.998,7.346-0.001C384.59,1699.907,384.751,1703.146,382.821,1705.143z"/>
		</g>
		<g>
			<path fill="#42B983" d="M-341.465,547.321c-1.835,1.985-4.813,1.986-6.65,0s-1.839-5.205-0.005-7.191
				c1.834-1.985,4.811-1.986,6.649,0C-339.633,542.116-339.63,545.336-341.465,547.321z"/>
		</g>
		<g>
			<path fill="#42B983" d="M239.965-23.547c-2.078,1.824-5.032,1.825-6.599,0.001c-1.567-1.824-1.151-4.782,0.932-6.605
				c2.083-1.824,5.042-1.825,6.604-0.001C242.465-28.329,242.043-25.371,239.965-23.547z"/>
		</g>
	</g>
</g>
</svg>
