<?xml version="1.0" encoding="utf-8"?>
<!-- Generator: Adobe Illustrator 15.0.0, SVG Export Plug-In . SVG Version: 6.00 Build 0)  -->
<!DOCTYPE svg PUBLIC "-//W3C//DTD SVG 1.1//EN" "http://www.w3.org/Graphics/SVG/1.1/DTD/svg11.dtd">
<svg version="1.1" id="Layer_1" xmlns="http://www.w3.org/2000/svg" xmlns:xlink="http://www.w3.org/1999/xlink" x="0px" y="0px"
	 width="2560px" height="1440px" viewBox="0 0 2560 1440" enable-background="new 0 0 2560 1440" xml:space="preserve">
<g>
	<g>
		<g>
			<path d="M259.414,1148.623c-0.042,2.708-2.422,4.906-5.311,4.905c-2.889,0.001-5.195-2.197-5.155-4.905
				c0.04-2.709,2.413-4.906,5.305-4.905C257.144,1143.718,259.457,1145.914,259.414,1148.623z"/>
		</g>
		<g>
			<path d="M687.363,824.25c0.513,3.754-2.172,6.797-5.991,6.797c-3.819,0.001-7.318-3.043-7.822-6.797
				c-0.503-3.753,2.172-6.796,5.982-6.797C683.342,817.453,686.85,820.497,687.363,824.25z"/>
		</g>
		<g>
			<path d="M1088.688,612.617c0.483,2.75-1.337,4.979-4.074,4.979c-2.736,0-5.354-2.229-5.835-4.979
				c-0.483-2.75,1.345-4.98,4.081-4.98S1088.202,609.868,1088.688,612.617z"/>
		</g>
		<g>
			<path d="M2010.843,445.908c0.167,2.923-2.168,5.293-5.22,5.293s-5.67-2.37-5.838-5.293c-0.168-2.922,2.177-5.293,5.232-5.293
				C2008.072,440.615,2010.678,442.986,2010.843,445.908z"/>
		</g>
		<g>
			<path d="M580.755,304.884c-0.125,4.271-3.511,7.731-7.593,7.731c-4.081,0-7.313-3.462-7.189-7.731
				c0.121-4.269,3.553-7.731,7.637-7.731S580.879,300.616,580.755,304.884z"/>
		</g>
		<g>
			<path d="M563.694,1315.369c-0.509,2.732-3.193,4.952-5.978,4.952c-2.785,0.001-4.624-2.218-4.124-4.952s3.158-4.952,5.952-4.952
				C562.339,1310.416,564.204,1312.635,563.694,1315.369z"/>
		</g>
		<g>
			<path d="M851.638,1169.682c-0.188,2.741-2.642,4.968-5.464,4.967c-2.822,0.002-4.945-2.226-4.76-4.967
				c0.188-2.74,2.616-4.966,5.439-4.966C849.677,1164.717,851.827,1166.939,851.638,1169.682z"/>
		</g>
		<g>
			<path d="M1889.034,1040.59c0.124,2.816-1.986,5.103-4.7,5.103c-2.713,0-5.007-2.285-5.13-5.103
				c-0.122-2.816,1.968-5.102,4.685-5.102C1886.604,1035.488,1888.911,1037.773,1889.034,1040.59z"/>
		</g>
		<g>
			<path d="M2501.922,563.142c0.001,2.973-2.521,5.381-5.628,5.382c-3.107,0-5.633-2.409-5.642-5.382
				c-0.012-2.971,2.51-5.381,5.626-5.381C2499.396,557.761,2501.924,560.171,2501.922,563.142z"/>
		</g>
		<g>
			<path d="M2409.902,1369.148c-0.187,3.405-3.106,6.168-6.514,6.168c-3.408-0.002-5.992-2.763-5.775-6.168
				c0.213-3.405,3.122-6.168,6.503-6.168C2407.496,1362.98,2410.089,1365.743,2409.902,1369.148z"/>
		</g>
		<g>
			<path d="M2050.689,812.334c0.345,3.042-1.802,5.509-4.783,5.509c-2.984,0-5.687-2.467-6.037-5.509
				c-0.352-3.041,1.786-5.509,4.779-5.509C2047.641,806.825,2050.346,809.293,2050.689,812.334z"/>
		</g>
		<g>
			<path d="M1626.737,564.649c0.356,2.437-1.349,4.411-3.819,4.411c-2.469,0-4.77-1.976-5.129-4.411
				c-0.359-2.437,1.354-4.412,3.825-4.412C1624.087,560.237,1626.378,562.213,1626.737,564.649z"/>
		</g>
		<g>
			<path d="M1674.902,1345.382c-0.746,2.446-3.342,4.431-5.776,4.431s-3.783-1.983-3.031-4.431c0.753-2.444,3.315-4.43,5.747-4.43
				S1675.65,1342.938,1674.902,1345.382z"/>
		</g>
		<g>
			<path d="M1415.93,1214.666c-0.39,2.824-2.998,5.113-5.81,5.113c-2.812,0.002-4.755-2.289-4.364-5.113
				c0.393-2.823,2.966-5.113,5.776-5.113C1414.342,1209.554,1416.32,1211.844,1415.93,1214.666z"/>
		</g>
		<g>
			<path d="M69.401,882.762c0.008,2.81-2.375,5.085-5.324,5.085c-2.949,0.001-5.339-2.275-5.339-5.085
				c0-2.807,2.385-5.086,5.325-5.085C67.003,877.677,69.393,879.954,69.401,882.762z"/>
		</g>
		<g>
			<path d="M73.162,70.958c-0.025,2.58-2.122,4.671-4.685,4.671s-4.635-2.092-4.628-4.671c0.007-2.579,2.104-4.671,4.686-4.671
				S73.187,68.378,73.162,70.958z"/>
		</g>
	</g>
	<g>
		<g>
			<path fill="#42B983" d="M259.414,1148.623c-0.042,2.708-2.422,4.906-5.311,4.905c-2.889,0.001-5.195-2.197-5.155-4.905
				c0.04-2.709,2.413-4.906,5.305-4.905C257.144,1143.718,259.457,1145.914,259.414,1148.623z"/>
		</g>
		<g>
			<path fill="#42B983" d="M687.363,824.25c0.513,3.754-2.172,6.797-5.991,6.797c-3.819,0.001-7.318-3.043-7.822-6.797
				c-0.503-3.753,2.172-6.796,5.982-6.797C683.342,817.453,686.85,820.497,687.363,824.25z"/>
		</g>
		<g>
			<path fill="#42B983" d="M1088.688,612.617c0.483,2.75-1.337,4.979-4.074,4.979c-2.736,0-5.354-2.229-5.835-4.979
				c-0.483-2.75,1.345-4.98,4.081-4.98S1088.202,609.868,1088.688,612.617z"/>
		</g>
		<g>
			<path fill="#42B983" d="M2010.843,445.908c0.167,2.923-2.168,5.293-5.22,5.293s-5.67-2.37-5.838-5.293
				c-0.168-2.922,2.177-5.293,5.232-5.293C2008.072,440.615,2010.678,442.986,2010.843,445.908z"/>
		</g>
		<g>
			<path fill="#42B983" d="M580.755,304.884c-0.125,4.271-3.511,7.731-7.593,7.731c-4.081,0-7.313-3.462-7.189-7.731
				c0.121-4.269,3.553-7.731,7.637-7.731S580.879,300.616,580.755,304.884z"/>
		</g>
		<g>
			<path fill="#42B983" d="M563.694,1315.369c-0.509,2.732-3.193,4.952-5.978,4.952c-2.785,0.001-4.624-2.218-4.124-4.952
				s3.158-4.952,5.952-4.952C562.339,1310.416,564.204,1312.635,563.694,1315.369z"/>
		</g>
		<g>
			<path fill="#42B983" d="M851.638,1169.682c-0.188,2.741-2.642,4.968-5.464,4.967c-2.822,0.002-4.945-2.226-4.76-4.967
				c0.188-2.74,2.616-4.966,5.439-4.966C849.677,1164.717,851.827,1166.939,851.638,1169.682z"/>
		</g>
		<g>
			<path fill="#42B983" d="M1889.034,1040.59c0.124,2.816-1.986,5.103-4.7,5.103c-2.713,0-5.007-2.285-5.13-5.103
				c-0.122-2.816,1.968-5.102,4.685-5.102C1886.604,1035.488,1888.911,1037.773,1889.034,1040.59z"/>
		</g>
		<g>
			<path fill="#42B983" d="M2501.922,563.142c0.001,2.973-2.521,5.381-5.628,5.382c-3.107,0-5.633-2.409-5.642-5.382
				c-0.012-2.971,2.51-5.381,5.626-5.381C2499.396,557.761,2501.924,560.171,2501.922,563.142z"/>
		</g>
		<g>
			<path fill="#42B983" d="M2409.902,1369.148c-0.187,3.405-3.106,6.168-6.514,6.168c-3.408-0.002-5.992-2.763-5.775-6.168
				c0.213-3.405,3.122-6.168,6.503-6.168C2407.496,1362.98,2410.089,1365.743,2409.902,1369.148z"/>
		</g>
		<g>
			<path fill="#42B983" d="M2050.689,812.334c0.345,3.042-1.802,5.509-4.783,5.509c-2.984,0-5.687-2.467-6.037-5.509
				c-0.352-3.041,1.786-5.509,4.779-5.509C2047.641,806.825,2050.346,809.293,2050.689,812.334z"/>
		</g>
		<g>
			<path fill="#42B983" d="M1626.737,564.649c0.356,2.437-1.349,4.411-3.819,4.411c-2.469,0-4.77-1.976-5.129-4.411
				c-0.359-2.437,1.354-4.412,3.825-4.412C1624.087,560.237,1626.378,562.213,1626.737,564.649z"/>
		</g>
		<g>
			<path fill="#42B983" d="M1674.902,1345.382c-0.746,2.446-3.342,4.431-5.776,4.431s-3.783-1.983-3.031-4.431
				c0.753-2.444,3.315-4.43,5.747-4.43S1675.65,1342.938,1674.902,1345.382z"/>
		</g>
		<g>
			<path fill="#42B983" d="M1415.93,1214.666c-0.39,2.824-2.998,5.113-5.81,5.113c-2.812,0.002-4.755-2.289-4.364-5.113
				c0.393-2.823,2.966-5.113,5.776-5.113C1414.342,1209.554,1416.32,1211.844,1415.93,1214.666z"/>
		</g>
		<g>
			<path fill="#42B983" d="M69.401,882.762c0.008,2.81-2.375,5.085-5.324,5.085c-2.949,0.001-5.339-2.275-5.339-5.085
				c0-2.807,2.385-5.086,5.325-5.085C67.003,877.677,69.393,879.954,69.401,882.762z"/>
		</g>
		<g>
			<path fill="#42B983" d="M73.162,70.958c-0.025,2.58-2.122,4.671-4.685,4.671s-4.635-2.092-4.628-4.671
				c0.007-2.579,2.104-4.671,4.686-4.671S73.187,68.378,73.162,70.958z"/>
		</g>
	</g>
</g>
</svg>
