<?xml version="1.0" encoding="utf-8"?>
<!-- Generator: Adobe Illustrator 15.0.0, SVG Export Plug-In . SVG Version: 6.00 Build 0)  -->
<!DOCTYPE svg PUBLIC "-//W3C//DTD SVG 1.1//EN" "http://www.w3.org/Graphics/SVG/1.1/DTD/svg11.dtd">
<svg version="1.1" id="Layer_1" xmlns="http://www.w3.org/2000/svg" xmlns:xlink="http://www.w3.org/1999/xlink" x="0px" y="0px"
	 width="2560px" height="1440px" viewBox="0 0 2560 1440" enable-background="new 0 0 2560 1440" xml:space="preserve">
<g>
	<g>
		<g>
			<path d="M-51.458,1833.675c1.823,2.357,0.976,6.146-1.887,8.469c-2.863,2.321-6.647,2.293-8.456-0.063
				c-1.809-2.356-0.971-6.147,1.879-8.469C-57.072,1831.293-53.28,1831.319-51.458,1833.675z"/>
		</g>
		<g>
			<path d="M-47.371,1572.886c1.788,1.929,1.513,5.035-0.615,6.937c-2.127,1.9-5.295,1.877-7.078-0.052
				c-1.782-1.928-1.509-5.035,0.612-6.937S-49.159,1570.956-47.371,1572.886z"/>
		</g>
		<g>
			<path d="M24.071,1042.721c2.894,2.674,3.215,6.979,0.715,9.612s-6.871,2.602-9.761-0.071c-2.889-2.673-3.208-6.979-0.712-9.612
				C16.81,1040.016,21.178,1040.048,24.071,1042.721z"/>
		</g>
		<g>
			<path d="M659.591-185.262c1.896,2.082,1.565,5.433-0.738,7.484c-2.305,2.051-5.715,2.026-7.619-0.056
				c-1.902-2.081-1.571-5.433,0.741-7.484C654.287-187.369,657.695-187.344,659.591-185.262z"/>
		</g>
		<g>
			<path d="M132.132-58.908c2.634,2.82,2.417,7.36-0.487,10.139s-7.403,2.745-10.049-0.075c-2.646-2.82-2.43-7.36,0.486-10.139
				C124.999-61.762,129.499-61.728,132.132-58.908z"/>
		</g>
		<g>
			<path d="M-243.042,391.919c3.081,2.963,3.417,7.733,0.745,10.654c-2.672,2.92-7.343,2.885-10.428-0.079
				c-3.084-2.963-3.414-7.734-0.738-10.654C-250.788,388.92-246.124,388.957-243.042,391.919z"/>
		</g>
		<g>
			<path d="M-415.606,713.263c3.244,3.041,3.608,7.936,0.804,10.932c-2.804,2.997-7.714,2.96-10.958-0.08
				c-3.244-3.041-3.596-7.936-0.792-10.933C-423.749,710.186-418.851,710.223-415.606,713.263z"/>
		</g>
		<g>
			<path d="M297.294,1477.716c1.84,1.947,1.672,5.083-0.376,7.003c-2.049,1.919-5.196,1.896-7.031-0.052
				c-1.834-1.947-1.667-5.082,0.376-7.003C292.306,1475.745,295.455,1475.769,297.294,1477.716z"/>
		</g>
		<g>
			<path d="M650.631,556.695c2.789,2.541,3.189,6.631,0.895,9.135c-2.294,2.503-6.414,2.473-9.204-0.067s-3.194-6.63-0.898-9.135
				C643.718,554.124,647.843,554.155,650.631,556.695z"/>
		</g>
		<g>
			<path d="M1109.069-427.301c1.771,2.117,1.249,5.523-1.176,7.609c-2.424,2.086-5.838,2.06-7.616-0.056s-1.242-5.524,1.189-7.609
				C1103.898-429.443,1107.297-429.417,1109.069-427.301z"/>
		</g>
		<g>
			<path d="M1608.984,211.494c2.568,2.426,2.538,6.331-0.066,8.722c-2.603,2.391-6.794,2.362-9.36-0.064
				c-2.566-2.425-2.541-6.331,0.062-8.722C1602.221,209.038,1606.416,209.068,1608.984,211.494z"/>
		</g>
		<g>
			<path d="M457.16,169.535c1.795,1.735,1.885,4.528,0.199,6.238c-1.686,1.71-4.51,1.689-6.309-0.046
				c-1.798-1.735-1.888-4.528-0.199-6.238C452.54,167.778,455.366,167.8,457.16,169.535z"/>
		</g>
		<g>
			<path d="M-365.939,1507.91c1.972,2,1.814,5.22-0.352,7.19c-2.167,1.97-5.517,1.948-7.485-0.054
				c-1.967-1.999-1.813-5.219,0.349-7.19C-371.265,1505.886-367.911,1505.91-365.939,1507.91z"/>
		</g>
		<g>
			<path d="M-101.453,657.63c2.432,2.233,2.79,5.826,0.798,8.026c-1.992,2.2-5.581,2.173-8.013-0.06
				c-2.432-2.232-2.787-5.827-0.794-8.026C-107.469,655.37-103.884,655.397-101.453,657.63z"/>
		</g>
		<g>
			<path d="M-965.748,926.766c1.883,1.837,1.868,4.795-0.041,6.605c-1.908,1.81-4.986,1.789-6.87-0.049
				c-1.883-1.837-1.86-4.795,0.048-6.605S-967.631,924.929-965.748,926.766z"/>
		</g>
	</g>
	<g>
		<g>
			<path fill="#42B983" d="M-51.458,1833.675c1.823,2.357,0.976,6.146-1.887,8.469c-2.863,2.321-6.647,2.293-8.456-0.063
				c-1.809-2.356-0.971-6.147,1.879-8.469C-57.072,1831.293-53.28,1831.319-51.458,1833.675z"/>
		</g>
		<g>
			<path fill="#42B983" d="M-47.371,1572.886c1.788,1.929,1.513,5.035-0.615,6.937c-2.127,1.9-5.295,1.877-7.078-0.052
				c-1.782-1.928-1.509-5.035,0.612-6.937S-49.159,1570.956-47.371,1572.886z"/>
		</g>
		<g>
			<path fill="#42B983" d="M24.071,1042.721c2.894,2.674,3.215,6.979,0.715,9.612s-6.871,2.602-9.761-0.071
				c-2.889-2.673-3.208-6.979-0.712-9.612C16.81,1040.016,21.178,1040.048,24.071,1042.721z"/>
		</g>
		<g>
			<path fill="#42B983" d="M659.591-185.262c1.896,2.082,1.565,5.433-0.738,7.484c-2.305,2.051-5.715,2.026-7.619-0.056
				c-1.902-2.081-1.571-5.433,0.741-7.484C654.287-187.369,657.695-187.344,659.591-185.262z"/>
		</g>
		<g>
			<path fill="#42B983" d="M132.132-58.908c2.634,2.82,2.417,7.36-0.487,10.139s-7.403,2.745-10.049-0.075
				c-2.646-2.82-2.43-7.36,0.486-10.139C124.999-61.762,129.499-61.728,132.132-58.908z"/>
		</g>
		<g>
			<path fill="#42B983" d="M-243.042,391.919c3.081,2.963,3.417,7.733,0.745,10.654c-2.672,2.92-7.343,2.885-10.428-0.079
				c-3.084-2.963-3.414-7.734-0.738-10.654C-250.788,388.92-246.124,388.957-243.042,391.919z"/>
		</g>
		<g>
			<path fill="#42B983" d="M-415.606,713.263c3.244,3.041,3.608,7.936,0.804,10.932c-2.804,2.997-7.714,2.96-10.958-0.08
				c-3.244-3.041-3.596-7.936-0.792-10.933C-423.749,710.186-418.851,710.223-415.606,713.263z"/>
		</g>
		<g>
			<path fill="#42B983" d="M297.294,1477.716c1.84,1.947,1.672,5.083-0.376,7.003c-2.049,1.919-5.196,1.896-7.031-0.052
				c-1.834-1.947-1.667-5.082,0.376-7.003C292.306,1475.745,295.455,1475.769,297.294,1477.716z"/>
		</g>
		<g>
			<path fill="#42B983" d="M650.631,556.695c2.789,2.541,3.189,6.631,0.895,9.135c-2.294,2.503-6.414,2.473-9.204-0.067
				s-3.194-6.63-0.898-9.135C643.718,554.124,647.843,554.155,650.631,556.695z"/>
		</g>
		<g>
			<path fill="#42B983" d="M1109.069-427.301c1.771,2.117,1.249,5.523-1.176,7.609c-2.424,2.086-5.838,2.06-7.616-0.056
				s-1.242-5.524,1.189-7.609C1103.898-429.443,1107.297-429.417,1109.069-427.301z"/>
		</g>
		<g>
			<path fill="#42B983" d="M1608.984,211.494c2.568,2.426,2.538,6.331-0.066,8.722c-2.603,2.391-6.794,2.362-9.36-0.064
				c-2.566-2.425-2.541-6.331,0.062-8.722C1602.221,209.038,1606.416,209.068,1608.984,211.494z"/>
		</g>
		<g>
			<path fill="#42B983" d="M457.16,169.535c1.795,1.735,1.885,4.528,0.199,6.238c-1.686,1.71-4.51,1.689-6.309-0.046
				c-1.798-1.735-1.888-4.528-0.199-6.238C452.54,167.778,455.366,167.8,457.16,169.535z"/>
		</g>
		<g>
			<path fill="#42B983" d="M-365.939,1507.91c1.972,2,1.814,5.22-0.352,7.19c-2.167,1.97-5.517,1.948-7.485-0.054
				c-1.967-1.999-1.813-5.219,0.349-7.19C-371.265,1505.886-367.911,1505.91-365.939,1507.91z"/>
		</g>
		<g>
			<path fill="#42B983" d="M-101.453,657.63c2.432,2.233,2.79,5.826,0.798,8.026c-1.992,2.2-5.581,2.173-8.013-0.06
				c-2.432-2.232-2.787-5.827-0.794-8.026C-107.469,655.37-103.884,655.397-101.453,657.63z"/>
		</g>
		<g>
			<path fill="#42B983" d="M-965.748,926.766c1.883,1.837,1.868,4.795-0.041,6.605c-1.908,1.81-4.986,1.789-6.87-0.049
				c-1.883-1.837-1.86-4.795,0.048-6.605S-967.631,924.929-965.748,926.766z"/>
		</g>
	</g>
</g>
<g>
	<g>
		<g>
			<path d="M1474.774,2297.252c1.823,2.354,0.978,6.147-1.886,8.469c-2.863,2.322-6.647,2.295-8.457-0.063
				c-1.81-2.355-0.971-6.148,1.878-8.469C1469.16,2294.868,1472.952,2294.896,1474.774,2297.252z"/>
		</g>
		<g>
			<path d="M1478.833,2036.433c1.789,1.929,1.513,5.036-0.613,6.937c-2.129,1.901-5.296,1.879-7.078-0.052
				c-1.78-1.927-1.511-5.035,0.612-6.937C1473.875,2034.48,1477.044,2034.502,1478.833,2036.433z"/>
		</g>
		<g>
			<path d="M1550.15,1506.012c2.896,2.674,3.215,6.977,0.717,9.612c-2.5,2.635-6.872,2.601-9.76-0.071
				c-2.89-2.672-3.209-6.978-0.714-9.612C1542.891,1503.307,1547.258,1503.341,1550.15,1506.012z"/>
		</g>
		<g>
			<ellipse transform="matrix(0.6913 -0.7226 0.7226 0.6913 51.3339 1530.2292)" cx="1816.568" cy="705.036" rx="5.061" ry="5.37"/>
		</g>
		<g>
			<path d="M2185.623,278.547c1.896,2.082,1.565,5.433-0.738,7.484c-2.303,2.051-5.716,2.026-7.618-0.056
				c-1.903-2.082-1.571-5.433,0.741-7.484C2180.319,276.44,2183.726,276.466,2185.623,278.547z"/>
		</g>
		<g>
			<path d="M1110.927,1176.647c3.246,3.042,3.609,7.935,0.805,10.933c-2.803,2.997-7.715,2.96-10.958-0.081
				c-3.244-3.04-3.595-7.936-0.792-10.933C1102.786,1173.569,1107.682,1173.607,1110.927,1176.647z"/>
		</g>
		<g>
			<path d="M1823.457,1941.358c1.84,1.947,1.672,5.084-0.377,7.003c-2.048,1.919-5.195,1.895-7.03-0.052
				c-1.834-1.948-1.669-5.083,0.376-7.003C1818.468,1939.387,1821.617,1939.411,1823.457,1941.358z"/>
		</g>
		<g>
			<path d="M1904.977,1654.159c2.032,1.952,2.178,5.099,0.328,7.022c-1.853,1.926-4.992,1.9-7.021-0.052
				c-2.027-1.952-2.176-5.099-0.328-7.022S1902.949,1652.205,1904.977,1654.159z"/>
		</g>
		<g>
			<path d="M2635.193,36.438c1.771,2.117,1.25,5.523-1.176,7.609c-2.425,2.086-5.84,2.06-7.616-0.056
				c-1.778-2.116-1.243-5.523,1.188-7.609C2630.023,34.295,2633.421,34.322,2635.193,36.438z"/>
		</g>
		<g>
			<path d="M3135.14,675.126c2.567,2.426,2.538,6.331-0.066,8.722c-2.603,2.391-6.794,2.362-9.36-0.064
				c-2.566-2.425-2.54-6.331,0.061-8.722C3128.374,672.67,3132.574,672.701,3135.14,675.126z"/>
		</g>
		<g>
			<path d="M2589.062,1180.528c1.854,1.744,2.058,4.547,0.455,6.264c-1.601,1.717-4.403,1.696-6.257-0.047
				c-1.854-1.741-2.062-4.548-0.459-6.264C2584.401,1178.764,2587.207,1178.787,2589.062,1180.528z"/>
		</g>
		<g>
			<path d="M1160.322,1971.429c1.973,2.001,1.814,5.22-0.352,7.19c-2.166,1.972-5.519,1.947-7.485-0.054
				c-1.967-1.997-1.813-5.22,0.349-7.19C1154.998,1969.406,1158.35,1969.429,1160.322,1971.429z"/>
		</g>
		<g>
			<path d="M560.653,1390.328c1.883,1.837,1.867,4.795-0.041,6.605c-1.909,1.811-4.985,1.789-6.87-0.049
				c-1.883-1.836-1.86-4.795,0.048-6.605C555.7,1388.469,558.77,1388.49,560.653,1390.328z"/>
		</g>
	</g>
	<g>
		<g>
			<path fill="#42B983" d="M1474.774,2297.252c1.823,2.354,0.978,6.147-1.886,8.469c-2.863,2.322-6.647,2.295-8.457-0.063
				c-1.81-2.355-0.971-6.148,1.878-8.469C1469.16,2294.868,1472.952,2294.896,1474.774,2297.252z"/>
		</g>
		<g>
			<path fill="#42B983" d="M1478.833,2036.433c1.789,1.929,1.513,5.036-0.613,6.937c-2.129,1.901-5.296,1.879-7.078-0.052
				c-1.78-1.927-1.511-5.035,0.612-6.937C1473.875,2034.48,1477.044,2034.502,1478.833,2036.433z"/>
		</g>
		<g>
			<path fill="#42B983" d="M1550.15,1506.012c2.896,2.674,3.215,6.977,0.717,9.612c-2.5,2.635-6.872,2.601-9.76-0.071
				c-2.89-2.672-3.209-6.978-0.714-9.612C1542.891,1503.307,1547.258,1503.341,1550.15,1506.012z"/>
		</g>
		<g>
			
				<ellipse transform="matrix(0.6913 -0.7226 0.7226 0.6913 51.3339 1530.2292)" fill="#42B983" cx="1816.568" cy="705.036" rx="5.061" ry="5.37"/>
		</g>
		<g>
			<path fill="#42B983" d="M2185.623,278.547c1.896,2.082,1.565,5.433-0.738,7.484c-2.303,2.051-5.716,2.026-7.618-0.056
				c-1.903-2.082-1.571-5.433,0.741-7.484C2180.319,276.44,2183.726,276.466,2185.623,278.547z"/>
		</g>
		<g>
			<path fill="#42B983" d="M1110.927,1176.647c3.246,3.042,3.609,7.935,0.805,10.933c-2.803,2.997-7.715,2.96-10.958-0.081
				c-3.244-3.04-3.595-7.936-0.792-10.933C1102.786,1173.569,1107.682,1173.607,1110.927,1176.647z"/>
		</g>
		<g>
			<path fill="#42B983" d="M1823.457,1941.358c1.84,1.947,1.672,5.084-0.377,7.003c-2.048,1.919-5.195,1.895-7.03-0.052
				c-1.834-1.948-1.669-5.083,0.376-7.003C1818.468,1939.387,1821.617,1939.411,1823.457,1941.358z"/>
		</g>
		<g>
			<path fill="#42B983" d="M1904.977,1654.159c2.032,1.952,2.178,5.099,0.328,7.022c-1.853,1.926-4.992,1.9-7.021-0.052
				c-2.027-1.952-2.176-5.099-0.328-7.022S1902.949,1652.205,1904.977,1654.159z"/>
		</g>
		<g>
			<path fill="#42B983" d="M2635.193,36.438c1.771,2.117,1.25,5.523-1.176,7.609c-2.425,2.086-5.84,2.06-7.616-0.056
				c-1.778-2.116-1.243-5.523,1.188-7.609C2630.023,34.295,2633.421,34.322,2635.193,36.438z"/>
		</g>
		<g>
			<path fill="#42B983" d="M3135.14,675.126c2.567,2.426,2.538,6.331-0.066,8.722c-2.603,2.391-6.794,2.362-9.36-0.064
				c-2.566-2.425-2.54-6.331,0.061-8.722C3128.374,672.67,3132.574,672.701,3135.14,675.126z"/>
		</g>
		<g>
			<path fill="#42B983" d="M2589.062,1180.528c1.854,1.744,2.058,4.547,0.455,6.264c-1.601,1.717-4.403,1.696-6.257-0.047
				c-1.854-1.741-2.062-4.548-0.459-6.264C2584.401,1178.764,2587.207,1178.787,2589.062,1180.528z"/>
		</g>
		<g>
			<path fill="#42B983" d="M1160.322,1971.429c1.973,2.001,1.814,5.22-0.352,7.19c-2.166,1.972-5.519,1.947-7.485-0.054
				c-1.967-1.997-1.813-5.22,0.349-7.19C1154.998,1969.406,1158.35,1969.429,1160.322,1971.429z"/>
		</g>
		<g>
			<path fill="#42B983" d="M560.653,1390.328c1.883,1.837,1.867,4.795-0.041,6.605c-1.909,1.811-4.985,1.789-6.87-0.049
				c-1.883-1.836-1.86-4.795,0.048-6.605C555.7,1388.469,558.77,1388.49,560.653,1390.328z"/>
		</g>
	</g>
</g>
</svg>
