<?xml version="1.0" encoding="utf-8"?>
<!-- Generator: Adobe Illustrator 15.0.0, SVG Export Plug-In . SVG Version: 6.00 Build 0)  -->
<!DOCTYPE svg PUBLIC "-//W3C//DTD SVG 1.1//EN" "http://www.w3.org/Graphics/SVG/1.1/DTD/svg11.dtd">
<svg version="1.1" id="Layer_1" xmlns="http://www.w3.org/2000/svg" xmlns:xlink="http://www.w3.org/1999/xlink" x="0px" y="0px"
	 width="127.783px" height="57.286px" viewBox="0 0 127.783 57.286" enable-background="new 0 0 127.783 57.286"
	 xml:space="preserve">
<linearGradient id="SVGID_1_" gradientUnits="userSpaceOnUse" x1="63.8906" y1="0" x2="63.8906" y2="57.2861">
	<stop  offset="0" style="stop-color:#68EBB0"/>
	<stop  offset="0.0771" style="stop-color:#63E5AA"/>
	<stop  offset="0.4186" style="stop-color:#51CD95"/>
	<stop  offset="0.735" style="stop-color:#46BE88"/>
	<stop  offset="1" style="stop-color:#42B983"/>
</linearGradient>
<path fill="url(#SVGID_1_)" d="M127.77,28.591c0-6.995,0.357-11.518-7.865-10.401c0.105-4.712-0.836-9.108-7.102-8.118
	c-3.547,6.771-3.555,17.077-4.059,26.891c-0.627-9.433-0.455-15.831-0.508-25.622c-0.025-4.754,0.688-9.151-2.283-10.654
	c-2.244-1.135-6.508-0.667-7.865,0c-4.258,2.094-1.299,8.625-2.789,13.952c-0.988,3.535-6.775,8.118-10.654,8.118H63.896h-0.011
	H43.137c-3.879,0-9.666-4.583-10.654-8.118c-1.49-5.327,1.469-11.858-2.79-13.952c-1.357-0.667-5.62-1.135-7.864,0
	c-2.972,1.503-2.257,5.9-2.283,10.654c-0.052,9.791,0.118,16.189-0.507,25.622c-0.504-9.813-0.513-20.12-4.059-26.891
	c-6.266-0.99-7.207,3.405-7.103,8.118c-8.222-1.117-7.864,3.406-7.864,10.401c0,6.099-0.501,10.396,4.82,10.401
	c2.694-2.972,2.14-9.191,3.044-13.954c1.893,6.091-2.915,19.497,2.791,21.817c2.138,0.869,5.896-0.334,8.878,0.508
	c-0.199,3.596-0.273,7.84,2.283,9.133c2.469,1.248,6.164,0.836,7.864,0c3.862-1.898,1.71-12.394,2.537-16.996
	c0.266-4.308,16.084-6.846,31.661-7.017c15.577,0.171,31.397,2.709,31.663,7.017c0.826,4.603-1.326,15.098,2.535,16.996
	c1.701,0.836,5.396,1.248,7.865,0c2.557-1.293,2.482-5.537,2.283-9.133c2.982-0.842,6.74,0.361,8.879-0.508
	c5.705-2.32,0.896-15.726,2.789-21.817c0.904,4.763,0.352,10.982,3.045,13.954C128.27,38.987,127.77,34.69,127.77,28.591z"/>
</svg>
